<svg xmlns="http://www.w3.org/2000/svg" width="135" height="40" viewBox="0 0 135 40"><path fill="#A1A0A0" d="M130.197 40H4.729C2.122 40 0 37.872 0 35.267V4.726C0 2.12 2.122 0 4.729 0h125.469C132.803 0 135 2.12 135 4.726v30.541c0 2.605-2.197 4.733-4.803 4.733"/><path fill="#010302" d="M134.032 35.268c0 2.116-1.714 3.83-3.834 3.83H4.729c-2.118 0-3.839-1.714-3.839-3.83V4.725C.89 2.61 2.61.89 4.729.89h125.469c2.121 0 3.834 1.721 3.834 3.835v30.543z"/><path fill="#FFF" d="M30.128 19.784c-.029-3.224 2.639-4.791 2.761-4.864-1.511-2.203-3.853-2.504-4.676-2.528-1.967-.207-3.875 1.178-4.877 1.178-1.022 0-2.565-1.157-4.229-1.123-2.14.032-4.142 1.271-5.239 3.195-2.267 3.924-.576 9.688 1.595 12.859 1.086 1.553 2.355 3.287 4.016 3.226 1.625-.066 2.232-1.035 4.193-1.035 1.943 0 2.513 1.035 4.207.997 1.744-.028 2.842-1.561 3.89-3.128 1.255-1.779 1.76-3.532 1.779-3.622-.041-.015-3.387-1.292-3.42-5.155m-3.2-9.478c.874-1.093 1.473-2.58 1.307-4.089-1.266.057-2.848.875-3.759 1.944-.806.941-1.525 2.486-1.34 3.938 1.421.106 2.88-.717 3.792-1.793m26.717 21.198h-2.271l-1.244-3.909h-4.324l-1.185 3.909H42.41l4.284-13.308h2.646l4.305 13.308zm-3.89-5.549L48.63 22.48c-.119-.355-.342-1.191-.671-2.508h-.04c-.131.566-.342 1.402-.632 2.508l-1.105 3.475h3.573zm14.907.633c0 1.632-.441 2.922-1.323 3.869-.79.843-1.771 1.264-2.942 1.264-1.264 0-2.172-.454-2.725-1.361h-.04v5.055H55.5V25.067c0-1.026-.027-2.079-.079-3.159h1.875l.119 1.521h.04c.711-1.146 1.79-1.718 3.238-1.718 1.132 0 2.076.447 2.832 1.342.759.896 1.137 2.074 1.137 3.535m-2.172.078c0-.934-.21-1.704-.633-2.31-.461-.633-1.079-.948-1.855-.948-.526 0-1.004.176-1.431.522-.429.351-.708.808-.84 1.373-.065.265-.099.48-.099.65v1.6c0 .698.214 1.287.643 1.769.428.48.983.721 1.668.721.803 0 1.428-.31 1.875-.928.448-.619.672-1.435.672-2.449m13.209-.078c0 1.632-.441 2.922-1.324 3.869-.789.843-1.771 1.264-2.941 1.264-1.264 0-2.172-.454-2.724-1.361h-.04v5.055h-2.132V25.067c0-1.026-.027-2.079-.079-3.159h1.875l.119 1.521h.04c.71-1.146 1.789-1.718 3.237-1.718 1.132 0 2.076.447 2.834 1.342.756.896 1.135 2.074 1.135 3.535m-2.172.078c0-.934-.211-1.704-.634-2.31-.461-.633-1.077-.948-1.854-.948-.527 0-1.004.176-1.432.522-.429.351-.707.808-.839 1.373-.064.265-.099.48-.099.65v1.6c0 .698.214 1.287.64 1.769.429.479.984.721 1.67.721.804 0 1.429-.31 1.875-.928.449-.619.673-1.435.673-2.449m14.512 1.106c0 1.132-.394 2.053-1.182 2.764-.867.777-2.074 1.165-3.625 1.165-1.433 0-2.58-.276-3.449-.829l.494-1.777c.936.566 1.963.851 3.082.851.803 0 1.428-.183 1.877-.544.446-.362.67-.849.67-1.454 0-.54-.185-.995-.554-1.364-.366-.369-.979-.712-1.836-1.029-2.33-.869-3.494-2.142-3.494-3.815 0-1.095.408-1.991 1.226-2.689.813-.699 1.899-1.048 3.258-1.048 1.211 0 2.217.211 3.021.632l-.533 1.738c-.75-.408-1.599-.612-2.547-.612-.75 0-1.336.186-1.757.553-.354.329-.532.73-.532 1.205 0 .526.203.961.61 1.304.355.315 1 .657 1.937 1.026 1.145.461 1.985 1 2.526 1.618.539.614.808 1.385.808 2.305m7.049-4.264h-2.35v4.659c0 1.185.414 1.777 1.244 1.777.381 0 .696-.033.946-.1l.06 1.619c-.42.157-.974.236-1.658.236-.842 0-1.5-.257-1.976-.771-.473-.514-.711-1.376-.711-2.587v-4.837h-1.399v-1.6h1.399v-1.757l2.095-.633v2.39h2.35v1.604zm10.603 3.119c0 1.475-.423 2.687-1.265 3.633-.883.976-2.055 1.461-3.516 1.461-1.408 0-2.529-.467-3.365-1.4-.836-.935-1.254-2.113-1.254-3.534 0-1.487.43-2.705 1.293-3.652.861-.948 2.022-1.422 3.484-1.422 1.407 0 2.541.467 3.396 1.402.819.906 1.227 2.077 1.227 3.512m-2.212.069c0-.886-.188-1.645-.571-2.277-.447-.766-1.086-1.147-1.914-1.147-.857 0-1.508.383-1.955 1.147-.383.634-.572 1.405-.572 2.317 0 .885.189 1.644.572 2.275.461.767 1.104 1.148 1.936 1.148.814 0 1.453-.391 1.914-1.168.392-.644.59-1.411.59-2.295m9.142-2.913c-.211-.039-.437-.06-.672-.06-.75 0-1.33.283-1.738.851-.355.5-.533 1.132-.533 1.895v5.035h-2.131l.021-6.574c0-1.105-.027-2.112-.08-3.021h1.856l.078 1.836h.059c.226-.631.58-1.139 1.066-1.521.475-.343.988-.514 1.541-.514.197 0 .375.014.533.039v2.034zm9.535 2.469c0 .382-.025.704-.078.967h-6.396c.025.948.334 1.673.929 2.173.538.447 1.235.672 2.092.672.946 0 1.811-.151 2.588-.454l.334 1.479c-.908.396-1.98.593-3.217.593-1.488 0-2.656-.438-3.507-1.313-.848-.875-1.272-2.05-1.272-3.524 0-1.446.395-2.651 1.186-3.612.828-1.026 1.947-1.539 3.355-1.539 1.383 0 2.43.513 3.141 1.539.562.814.845 1.822.845 3.019m-2.033-.553c.014-.632-.125-1.178-.414-1.64-.369-.593-.937-.889-1.699-.889-.697 0-1.264.289-1.697.869-.354.461-.565 1.014-.631 1.658l4.441.002zM49.05 10.009c0 1.177-.353 2.063-1.058 2.658-.653.549-1.581.824-2.783.824-.596 0-1.106-.026-1.533-.078V6.982c.557-.091 1.157-.137 1.805-.137 1.146 0 2.009.249 2.591.747.651.564.978 1.369.978 2.417m-1.105.029c0-.763-.202-1.348-.606-1.756-.404-.407-.994-.611-1.771-.611-.33 0-.611.022-.845.068v4.889c.129.021.365.029.708.029.803 0 1.421-.224 1.857-.669.437-.446.657-1.096.657-1.95m6.964.999c0 .725-.207 1.319-.621 1.785-.435.479-1.009.718-1.728.718-.691 0-1.242-.229-1.653-.689-.41-.459-.615-1.037-.615-1.735 0-.73.211-1.329.635-1.794s.994-.698 1.712-.698c.692 0 1.248.229 1.669.688.4.445.601 1.021.601 1.725m-1.087.034c0-.436-.095-.809-.281-1.119-.22-.376-.533-.564-.94-.564-.421 0-.74.188-.961.564-.188.311-.28.689-.28 1.138 0 .436.094.809.28 1.119.228.376.543.564.951.564.4 0 .714-.191.94-.574.194-.317.291-.693.291-1.128m8.943-2.352l-1.475 4.714h-.96l-.611-2.047c-.155-.511-.281-1.019-.379-1.522h-.019c-.092.518-.218 1.024-.38 1.522l-.648 2.047h-.971l-1.388-4.714h1.077l.533 2.241c.129.53.235 1.035.32 1.513h.019c.078-.394.207-.896.39-1.503l.668-2.25h.854l.641 2.202c.155.537.281 1.054.378 1.552h.029c.071-.484.178-1.002.32-1.552l.572-2.202 1.03-.001zm5.433 4.714H67.15v-2.699c0-.832-.316-1.248-.95-1.248-.312 0-.563.113-.757.343-.193.229-.291.499-.291.808v2.796h-1.049v-3.365c0-.414-.013-.863-.037-1.35h.921l.049.737h.028c.122-.229.305-.418.543-.569.284-.176.603-.265.95-.265.44 0 .807.142 1.098.427.361.35.543.87.543 1.563v2.822zm1.843-6.877h1.047v6.877h-1.047zm7.217 4.481c0 .725-.207 1.319-.621 1.785-.434.479-1.01.718-1.727.718-.693 0-1.244-.229-1.654-.689-.41-.459-.615-1.037-.615-1.735 0-.73.211-1.329.635-1.794.425-.465.994-.698 1.712-.698.692 0 1.247.229 1.67.688.399.445.6 1.021.6 1.725m-1.088.034c0-.436-.094-.809-.281-1.119-.219-.376-.533-.564-.938-.564-.422 0-.742.188-.961.564-.188.311-.281.689-.281 1.138 0 .436.094.809.281 1.119.227.376.543.564.95.564.4 0 .714-.191.939-.574.195-.317.291-.693.291-1.128m6.16 2.362h-.941l-.078-.543h-.028c-.322.434-.781.65-1.377.65-.445 0-.806-.143-1.076-.427-.246-.258-.369-.579-.369-.96 0-.576.24-1.016.723-1.319s1.16-.453 2.033-.446V10.3c0-.621-.326-.931-.979-.931-.466 0-.875.117-1.229.349l-.214-.688c.438-.271.979-.407 1.617-.407 1.231 0 1.85.65 1.85 1.95v1.735c0 .472.023.847.068 1.125m-1.088-1.62v-.728c-1.156-.02-1.734.297-1.734.95 0 .246.066.43.201.553s.307.185.512.185c.23 0 .445-.073.642-.219s.317-.331.362-.558c.011-.05.017-.112.017-.183m7.043 1.62h-.931l-.049-.757h-.028c-.298.576-.804.864-1.515.864-.567 0-1.041-.223-1.416-.669s-.562-1.025-.562-1.736c0-.763.203-1.381.61-1.853.396-.44.88-.66 1.455-.66.634 0 1.076.213 1.328.64h.021V6.556h1.049v5.607c.001.459.013.882.038 1.27m-1.086-1.988v-.786c0-.136-.01-.246-.029-.33-.059-.252-.186-.464-.379-.635-.195-.171-.43-.258-.701-.258-.391 0-.697.155-.922.467-.223.311-.336.708-.336 1.192 0 .466.107.845.322 1.136.227.31.532.465.916.465.344 0 .619-.129.828-.389.202-.238.301-.526.301-.862m10.049-.408c0 .725-.207 1.319-.621 1.785-.434.479-1.008.718-1.727.718-.691 0-1.242-.229-1.654-.689-.41-.459-.615-1.037-.615-1.735 0-.73.211-1.329.635-1.794s.994-.698 1.713-.698c.691 0 1.248.229 1.668.688.4.445.601 1.021.601 1.725m-1.086.034c0-.436-.094-.809-.281-1.119-.221-.376-.533-.564-.941-.564-.42 0-.739.188-.961.564-.188.311-.28.689-.28 1.138 0 .436.094.809.28 1.119.228.376.543.564.951.564.4 0 .715-.191.941-.574.192-.317.291-.693.291-1.128m6.721 2.362h-1.047v-2.699c0-.832-.316-1.248-.951-1.248-.311 0-.562.113-.756.343-.194.229-.291.499-.291.808v2.796h-1.049v-3.365c0-.414-.012-.863-.037-1.35h.92l.049.737h.029c.123-.229.305-.418.543-.569.285-.176.602-.265.951-.265.438 0 .805.142 1.096.427.363.35.543.87.543 1.563v2.822zm12.601 0h-1.05v-2.68c0-.845-.315-1.268-.948-1.268-.486 0-.818.245-1 .734-.031.104-.05.229-.05.377v2.835h-1.047V6.556h1.047v2.842h.021c.33-.518.803-.775 1.416-.775.434 0 .793.142 1.078.427.354.355.533.883.533 1.581v2.802zm5.723-2.58c0 .188-.014.347-.039.476h-3.143c.014.466.164.821.454 1.066.267.221.609.33 1.029.33.465 0 .89-.073 1.271-.223l.164.729c-.447.193-.974.291-1.582.291-.73 0-1.306-.216-1.722-.646-.418-.43-.625-1.007-.625-1.731 0-.711.193-1.303.582-1.774.406-.504.955-.756 1.648-.756.678 0 1.193.252 1.541.756.283.399.422.894.422 1.482m-1-.271c.008-.311-.062-.579-.203-.805-.182-.291-.459-.438-.834-.438-.342 0-.621.143-.834.427-.174.228-.277.498-.311.815h2.182z"/></svg>